<svg width="196" height="45" viewBox="0 0 196 45" fill="none" xmlns="http://www.w3.org/2000/svg">
<path d="M1.372 14.685C1.372 12.3983 2.02533 10.6997 3.332 9.589C4.63867 8.44567 6.77833 7.874 9.751 7.874C11.5803 7.874 13.3933 8.15167 15.19 8.707V11.941C13.5567 11.353 11.76 11.059 9.8 11.059C7.84 11.059 6.517 11.353 5.831 11.941C5.145 12.4963 4.802 13.4437 4.802 14.783V16.057C4.802 17.1023 4.998 17.9027 5.39 18.458C5.81467 19.0133 6.58233 19.536 7.693 20.026L11.907 22.084C14.847 23.5213 16.317 25.514 16.317 28.062V29.385C16.317 33.9583 13.3607 36.245 7.448 36.245C5.22667 36.245 3.26667 35.9837 1.568 35.461V32.227C3.26667 32.815 5.145 33.109 7.203 33.109C9.29367 33.109 10.7473 32.7987 11.564 32.178C12.4133 31.5247 12.838 30.5773 12.838 29.336V28.356C12.838 27.4413 12.6257 26.739 12.201 26.249C11.7763 25.7263 10.9433 25.171 9.702 24.583L5.488 22.574C2.744 21.2673 1.372 19.193 1.372 16.351V14.685ZM42.6461 8.119H46.1741L41.1271 36H36.3251C33.6791 21.2673 32.3561 13.5253 32.3561 12.774C32.1927 14.7013 31.7191 17.7883 30.9351 22.035L28.3871 36H23.6341L18.5381 8.119H22.1151L26.0841 32.423L30.4451 8.119H34.3161L38.6771 32.472L42.6461 8.119ZM49.8812 28.895V15.273C49.8812 12.9537 50.5346 11.108 51.8412 9.736C53.1806 8.33133 55.1896 7.629 57.8682 7.629C60.5469 7.629 62.5232 8.33133 63.7972 9.736C65.1039 11.108 65.7572 12.9537 65.7572 15.273V23.799H53.3112V28.748C53.3112 30.218 53.7686 31.3123 54.6832 32.031C55.5979 32.7497 57.0189 33.109 58.9462 33.109C60.8736 33.109 62.8662 32.815 64.9242 32.227V35.461C63.2909 35.9837 61.3472 36.245 59.0932 36.245C52.9519 36.245 49.8812 33.795 49.8812 28.895ZM53.3112 20.908H62.4252V15.273C62.4252 12.2023 60.9062 10.667 57.8682 10.667C54.8302 10.667 53.3112 12.2023 53.3112 15.273V20.908ZM71.223 28.895V15.273C71.223 12.9537 71.8764 11.108 73.183 9.736C74.5224 8.33133 76.5314 7.629 79.21 7.629C81.8887 7.629 83.865 8.33133 85.139 9.736C86.4457 11.108 87.099 12.9537 87.099 15.273V23.799H74.653V28.748C74.653 30.218 75.1104 31.3123 76.025 32.031C76.9397 32.7497 78.3607 33.109 80.288 33.109C82.2154 33.109 84.208 32.815 86.266 32.227V35.461C84.6327 35.9837 82.689 36.245 80.435 36.245C74.2937 36.245 71.223 33.795 71.223 28.895ZM74.653 20.908H83.767V15.273C83.767 12.2023 82.248 10.667 79.21 10.667C76.172 10.667 74.653 12.2023 74.653 15.273V20.908ZM105.207 14.832C105.207 12.4473 103.998 11.255 101.581 11.255C100.013 11.255 98.3305 11.6797 96.5338 12.529V32.815H100.65C103.688 32.815 105.207 31.3613 105.207 28.454V14.832ZM96.3868 9.442C98.5755 8.49466 100.584 8.021 102.414 8.021C104.243 8.021 105.746 8.59267 106.922 9.736C108.13 10.8467 108.735 12.431 108.735 14.489V28.699C108.735 30.9857 108.065 32.7823 106.726 34.089C105.419 35.363 103.671 36 101.483 36H96.5338V43.301H93.0548V8.119H96.3868V9.442ZM113.305 27.768V14.489C113.305 12.0063 114.073 10.079 115.608 8.707C117.143 7.30233 119.463 6.6 122.566 6.6C128.544 6.6 131.533 9.22967 131.533 14.489V24.436H120.41V27.18C120.41 28.16 120.671 28.8623 121.194 29.287C121.749 29.679 122.942 29.875 124.771 29.875C126.633 29.875 128.658 29.5483 130.847 28.895V35.363C128.56 35.9837 126.11 36.294 123.497 36.294C116.702 36.294 113.305 33.452 113.305 27.768ZM120.41 18.801H124.722V14.587C124.722 13.3457 124.003 12.725 122.566 12.725C121.129 12.725 120.41 13.3457 120.41 14.587V18.801ZM140.923 27.621V28.993C140.923 30.1037 141.495 30.659 142.638 30.659C143.618 30.659 144.435 30.4793 145.088 30.12V24.191L142.834 24.779C142.018 25.0077 141.495 25.3017 141.266 25.661C141.038 26.0203 140.923 26.6737 140.923 27.621ZM135.19 7.776C136.987 7.15533 139.551 6.845 142.883 6.845C146.215 6.845 148.6 7.58 150.037 9.05C151.475 10.4873 152.193 12.676 152.193 15.616V36H145.284V33.893C144.337 35.363 142.687 36.098 140.335 36.098C137.983 36.098 136.285 35.5427 135.239 34.432C134.194 33.2887 133.671 31.4757 133.671 28.993V27.327C133.671 25.1383 134.145 23.456 135.092 22.28C136.072 21.104 137.64 20.222 139.796 19.634L145.137 18.262V15.567C145.105 14.7177 144.86 14.1297 144.402 13.803C143.945 13.4437 143.112 13.264 141.903 13.264C139.192 13.264 136.954 13.607 135.19 14.293V7.776ZM155.208 14.734C155.208 12.1207 155.992 10.1607 157.56 8.854C159.161 7.51467 161.725 6.845 165.253 6.845C167.67 6.845 169.663 7.09 171.231 7.58V14.097C169.761 13.607 168.144 13.362 166.38 13.362C164.649 13.362 163.538 13.509 163.048 13.803C162.591 14.097 162.362 14.5707 162.362 15.224V15.616C162.362 16.008 162.476 16.351 162.705 16.645C162.966 16.9063 163.505 17.3147 164.322 17.87L168.291 20.516C169.532 21.3327 170.48 22.231 171.133 23.211C171.819 24.191 172.162 25.416 172.162 26.886V28.111C172.162 33.5337 168.601 36.245 161.48 36.245C158.997 36.245 156.874 36.0327 155.11 35.608V28.993C156.645 29.4503 158.344 29.679 160.206 29.679C162.068 29.679 163.293 29.532 163.881 29.238C164.502 28.9113 164.812 28.4377 164.812 27.817V27.376C164.812 26.886 164.649 26.494 164.322 26.2C163.93 25.808 162.052 24.5013 158.687 22.28C156.368 20.712 155.208 18.6213 155.208 16.008V14.734ZM187.484 7.09H194.589L187.729 43.301H180.575L181.947 36H179.399L173.617 7.09H180.869C182.437 15.42 183.368 20.7937 183.662 23.211C183.956 25.5957 184.152 27.915 184.25 30.169C184.413 26.2163 184.969 21.545 185.916 16.155L187.484 7.09Z" fill="white"/>
</svg>
